<svg id="Layer_1" data-name="Layer 1" xmlns="http://www.w3.org/2000/svg" xmlns:xlink="http://www.w3.org/1999/xlink" viewBox="0 0 342.72 339.94"><defs><style>.cls-1{fill:url(#linear-gradient);}.cls-2{fill:url(#linear-gradient-2);}.cls-3{fill:url(#linear-gradient-3);}.cls-4{fill:none;stroke:#231f20;stroke-miterlimit:10;}.cls-5{fill:url(#linear-gradient-4);}.cls-6{fill:url(#linear-gradient-5);}.cls-7{fill:url(#linear-gradient-6);}.cls-8{fill:url(#linear-gradient-7);}.cls-9{fill:url(#linear-gradient-8);}</style><linearGradient id="linear-gradient" x1="132.12" y1="410.36" x2="284.05" y2="410.36" gradientUnits="userSpaceOnUse"><stop offset="0" stop-color="#8351a1"/><stop offset="1" stop-color="#6b52a2"/></linearGradient><linearGradient id="linear-gradient-2" x1="322.9" y1="410.39" x2="474.84" y2="410.39" gradientUnits="userSpaceOnUse"><stop offset="0" stop-color="#6b52a2"/><stop offset="1" stop-color="#5553a3"/></linearGradient><linearGradient id="linear-gradient-3" x1="284.03" y1="440.73" x2="322.9" y2="440.73" gradientUnits="userSpaceOnUse"><stop offset="0" stop-color="#6b52a2"/><stop offset="1" stop-color="#6b52a2"/></linearGradient><linearGradient id="linear-gradient-4" x1="146.88" y1="279.04" x2="289.55" y2="279.04" gradientUnits="userSpaceOnUse"><stop offset="0" stop-color="#8351a1"/><stop offset="1" stop-color="#5553a3"/></linearGradient><linearGradient id="linear-gradient-5" x1="205.52" y1="268.24" x2="297.64" y2="268.24" xlink:href="#linear-gradient-4"/><linearGradient id="linear-gradient-6" x1="318.14" y1="279.04" x2="460.81" y2="279.04" xlink:href="#linear-gradient-4"/><linearGradient id="linear-gradient-7" x1="293.4" y1="246.06" x2="314.29" y2="246.06" xlink:href="#linear-gradient-4"/><linearGradient id="linear-gradient-8" x1="310.05" y1="268.24" x2="402.17" y2="268.24" xlink:href="#linear-gradient-4"/></defs><path class="cls-1" d="M132.12,267V493c66,0,123.28,24.61,151.91,60.68v-226h0C255.43,291.63,198.13,267,132.12,267Zm133.19,81.06V518.39c-21.57-27.18-64.73-45.72-114.47-45.72V302.34c49.74,0,92.92,18.55,114.49,45.73Z" transform="translate(-132.12 -214.32)"/><path class="cls-2" d="M322.9,327.72v226C351.51,517.67,408.82,493,474.84,493V267C408.82,267,351.51,291.64,322.9,327.72Zm133.22,145c-49.74,0-92.91,18.54-114.48,45.72V348.09h0c21.56-27.18,64.74-45.73,114.49-45.73Z" transform="translate(-132.12 -214.32)"/><path class="cls-3" d="M322.9,327.7V553.76H284.06l0,0v-226Z" transform="translate(-132.12 -214.32)"/><path class="cls-4" d="M284.06,553.76h0v0Z" transform="translate(-132.12 -214.32)"/><path class="cls-5" d="M289.55,322.16c-.92-37.38-60.26-67.52-133.31-67.52a9.36,9.36,0,0,1,0-18.72C229.42,235.92,288.83,274.45,289.55,322.16Z" transform="translate(-132.12 -214.32)"/><path class="cls-6" d="M297.64,322.16c0-49.22-37.05-89.12-82.76-89.12a9.36,9.36,0,0,1-.48-18.71h1C260.85,214.66,297.64,262.81,297.64,322.16Z" transform="translate(-132.12 -214.32)"/><path class="cls-7" d="M460.81,245.28a9.36,9.36,0,0,1-9.36,9.36c-73.05,0-132.39,30.14-133.31,67.52.72-47.71,60.13-86.24,133.31-86.24A9.36,9.36,0,0,1,460.81,245.28Z" transform="translate(-132.12 -214.32)"/><path class="cls-8" d="M314.29,246.06c0,17.53-4.68,31.74-10.44,31.74s-10.45-14.21-10.45-31.74,4.68-31.74,10.45-31.74S314.29,228.53,314.29,246.06Z" transform="translate(-132.12 -214.32)"/><path class="cls-9" d="M310.05,322.16c0-59.35,36.79-107.5,82.28-107.83h1a9.36,9.36,0,0,1-.48,18.71C347.1,233,310.05,272.94,310.05,322.16Z" transform="translate(-132.12 -214.32)"/></svg>